<svg xmlns="http://www.w3.org/2000/svg" viewBox="0 0 64 64" fill="none">
  <defs>
    <linearGradient id="fg" x1="0%" y1="0%" x2="100%" y2="100%">
      <stop offset="0%" stop-color="#00C3FF"/>
      <stop offset="100%" stop-color="#0090CC"/>
    </linearGradient>
    <filter id="glow">
      <feGaussianBlur stdDeviation="2" result="blur"/>
      <feMerge>
        <feMergeNode in="blur"/>
        <feMergeNode in="SourceGraphic"/>
      </feMerge>
    </filter>
  </defs>
  <rect width="64" height="64" rx="14" fill="#0a0f1e"/>
  <rect x="4" y="4" width="56" height="56" rx="12" fill="none" stroke="rgba(0,195,255,0.25)" stroke-width="1.5"/>
  <g filter="url(#glow)">
    <path d="M18 22 C18 22 14 32 14 38 C14 42 16 44 18 44" stroke="url(#fg)" stroke-width="2.5" stroke-linecap="round" fill="none"/>
    <path d="M26 18 C26 18 24 30 24 38 C24 42 26 46 28 46" stroke="url(#fg)" stroke-width="2.5" stroke-linecap="round" fill="none"/>
    <path d="M38 18 C38 18 40 30 40 38 C40 42 38 46 36 46" stroke="url(#fg)" stroke-width="2.5" stroke-linecap="round" fill="none"/>
    <path d="M46 22 C46 22 50 32 50 38 C50 42 48 44 46 44" stroke="url(#fg)" stroke-width="2.5" stroke-linecap="round" fill="none"/>
  </g>
  <rect x="24" y="48" width="16" height="4" rx="2" fill="url(#fg)" opacity="0.6"/>
</svg>
